G75*
%MOIN*%
%OFA0B0*%
%FSLAX25Y25*%
%IPPOS*%
%LPD*%
%AMOC8*
5,1,8,0,0,1.08239X$1,22.5*
%
%ADD10C,0.06500*%
%ADD11C,0.07400*%
%ADD12R,0.07400X0.07400*%
%ADD13C,0.04800*%
%ADD14C,0.01000*%
D10*
X0097200Y0027700D03*
X0097200Y0037700D03*
D11*
X0086200Y0031700D03*
X0076200Y0031700D03*
X0066200Y0031700D03*
X0057200Y0027700D03*
X0047200Y0027700D03*
X0047200Y0016700D03*
X0057200Y0016700D03*
X0072200Y0013700D03*
X0082200Y0013700D03*
X0057200Y0038700D03*
X0047200Y0038700D03*
X0047200Y0055700D03*
X0057200Y0055700D03*
X0067200Y0055700D03*
X0077200Y0055700D03*
X0087200Y0055700D03*
X0097200Y0055700D03*
X0037200Y0055700D03*
X0027200Y0055700D03*
X0017200Y0055700D03*
X0007200Y0055700D03*
D12*
X0092200Y0013700D03*
D13*
X0006200Y0008700D03*
X0006200Y0018700D03*
X0006200Y0028700D03*
X0006200Y0038700D03*
X0036200Y0038700D03*
X0036200Y0028700D03*
X0036200Y0018700D03*
X0036200Y0008700D03*
D14*
X0036575Y0008825D01*
X0047200Y0008825D01*
X0047200Y0016700D01*
X0057200Y0016700D02*
X0057200Y0016950D01*
X0068450Y0016950D01*
X0068450Y0023825D01*
X0075950Y0031325D01*
X0076200Y0031700D01*
X0067200Y0032575D02*
X0067200Y0055700D01*
X0057200Y0055700D02*
X0057200Y0038700D01*
X0066575Y0031950D02*
X0067200Y0032575D01*
X0066575Y0031950D02*
X0066200Y0031700D01*
X0057200Y0027700D02*
X0057200Y0027575D01*
X0052200Y0022575D01*
X0036575Y0022575D01*
X0036575Y0028200D01*
X0036200Y0028700D01*
X0042200Y0033200D02*
X0047200Y0028200D01*
X0047200Y0027700D01*
X0042200Y0033200D02*
X0042200Y0050700D01*
X0047200Y0055700D01*
X0027200Y0055700D02*
X0027200Y0027575D01*
X0035950Y0018825D01*
X0036200Y0018700D01*
X0009700Y0025075D02*
X0009700Y0011950D01*
X0006575Y0008825D01*
X0006200Y0008700D01*
X0009700Y0025075D02*
X0006575Y0028200D01*
X0006200Y0028700D01*
X0082200Y0013825D02*
X0082200Y0013700D01*
X0082200Y0013825D02*
X0085950Y0017575D01*
X0085950Y0031325D01*
X0086200Y0031700D01*
X0093137Y0023512D02*
X0097200Y0027575D01*
X0097200Y0027700D01*
X0093137Y0023512D02*
X0092825Y0023825D01*
X0092825Y0051325D01*
X0097200Y0055700D01*
X0093137Y0023512D02*
X0092200Y0022575D01*
X0092200Y0013700D01*
M02*
