G75*
%MOIN*%
%OFA0B0*%
%FSLAX25Y25*%
%IPPOS*%
%LPD*%
%AMOC8*
5,1,8,0,0,1.08239X$1,22.5*
%
%ADD10C,0.06500*%
%ADD11C,0.07400*%
%ADD12R,0.07400X0.07400*%
%ADD13C,0.04800*%
%ADD14C,0.01000*%
D10*
X0097200Y0027700D03*
X0097200Y0037700D03*
D11*
X0086200Y0031700D03*
X0076200Y0031700D03*
X0066200Y0031700D03*
X0057200Y0027700D03*
X0047200Y0027700D03*
X0047200Y0016700D03*
X0057200Y0016700D03*
X0072200Y0013700D03*
X0082200Y0013700D03*
X0057200Y0038700D03*
X0047200Y0038700D03*
X0047200Y0055700D03*
X0057200Y0055700D03*
X0067200Y0055700D03*
X0077200Y0055700D03*
X0087200Y0055700D03*
X0097200Y0055700D03*
X0037200Y0055700D03*
X0027200Y0055700D03*
X0017200Y0055700D03*
X0007200Y0055700D03*
D12*
X0092200Y0013700D03*
D13*
X0006200Y0008700D03*
X0006200Y0018700D03*
X0006200Y0028700D03*
X0006200Y0038700D03*
X0036200Y0038700D03*
X0036200Y0028700D03*
X0036200Y0018700D03*
X0036200Y0008700D03*
D14*
X0030950Y0018825D02*
X0037200Y0025075D01*
X0044700Y0025075D01*
X0047200Y0027575D01*
X0047200Y0027700D01*
X0052200Y0025700D02*
X0052200Y0033200D01*
X0057200Y0038200D01*
X0057200Y0038700D01*
X0050325Y0038825D02*
X0062200Y0050700D01*
X0072200Y0050700D01*
X0077200Y0055700D01*
X0087200Y0055700D02*
X0087200Y0036950D01*
X0064075Y0036950D01*
X0057200Y0030075D01*
X0057200Y0027700D01*
X0052200Y0025700D02*
X0055325Y0022575D01*
X0058450Y0022575D01*
X0067200Y0013825D01*
X0072200Y0013825D01*
X0072200Y0013700D01*
X0086200Y0031700D02*
X0087200Y0033200D01*
X0087200Y0036950D01*
X0086575Y0031950D02*
X0092200Y0037575D01*
X0097200Y0037575D01*
X0097200Y0037700D01*
X0086575Y0031950D02*
X0086200Y0031700D01*
X0057200Y0055700D02*
X0052200Y0050700D01*
X0045325Y0050700D01*
X0040950Y0055075D01*
X0037200Y0055075D01*
X0037200Y0055700D01*
X0032200Y0050700D01*
X0025325Y0050700D01*
X0020325Y0055700D01*
X0017200Y0055700D01*
X0007200Y0055700D02*
X0024075Y0038825D01*
X0035950Y0038825D01*
X0036200Y0038700D01*
X0047200Y0038825D02*
X0047200Y0038700D01*
X0047200Y0038825D02*
X0050325Y0038825D01*
X0036200Y0028700D02*
X0035950Y0028825D01*
X0006575Y0028825D01*
X0006200Y0028700D01*
X0006575Y0028825D02*
X0006575Y0038200D01*
X0006200Y0038700D01*
X0006575Y0018825D02*
X0006200Y0018700D01*
X0006575Y0018825D02*
X0030950Y0018825D01*
M02*
