G75*
%MOIN*%
%OFA0B0*%
%FSLAX25Y25*%
%IPPOS*%
%LPD*%
%AMOC8*
5,1,8,0,0,1.08239X$1,22.5*
%
%ADD10C,0.00000*%
%ADD11C,0.00600*%
%ADD12C,0.00400*%
%ADD13C,0.00100*%
%ADD14C,0.00800*%
%ADD15C,0.00080*%
%ADD16C,0.00200*%
D10*
X0001200Y0002700D02*
X0001200Y0061401D01*
X0103121Y0061401D01*
X0103121Y0002700D01*
X0001200Y0002700D01*
D11*
X0009700Y0003700D02*
X0032700Y0003700D01*
X0032700Y0043700D01*
X0025200Y0043700D01*
X0021900Y0046000D02*
X0021900Y0052405D01*
X0025200Y0043700D02*
X0025198Y0043574D01*
X0025192Y0043449D01*
X0025182Y0043324D01*
X0025168Y0043199D01*
X0025151Y0043074D01*
X0025129Y0042950D01*
X0025104Y0042827D01*
X0025074Y0042705D01*
X0025041Y0042584D01*
X0025004Y0042464D01*
X0024964Y0042345D01*
X0024919Y0042228D01*
X0024871Y0042111D01*
X0024819Y0041997D01*
X0024764Y0041884D01*
X0024705Y0041773D01*
X0024643Y0041664D01*
X0024577Y0041557D01*
X0024508Y0041452D01*
X0024436Y0041349D01*
X0024361Y0041248D01*
X0024282Y0041150D01*
X0024200Y0041055D01*
X0024116Y0040962D01*
X0024028Y0040872D01*
X0023938Y0040784D01*
X0023845Y0040700D01*
X0023750Y0040618D01*
X0023652Y0040539D01*
X0023551Y0040464D01*
X0023448Y0040392D01*
X0023343Y0040323D01*
X0023236Y0040257D01*
X0023127Y0040195D01*
X0023016Y0040136D01*
X0022903Y0040081D01*
X0022789Y0040029D01*
X0022672Y0039981D01*
X0022555Y0039936D01*
X0022436Y0039896D01*
X0022316Y0039859D01*
X0022195Y0039826D01*
X0022073Y0039796D01*
X0021950Y0039771D01*
X0021826Y0039749D01*
X0021701Y0039732D01*
X0021576Y0039718D01*
X0021451Y0039708D01*
X0021326Y0039702D01*
X0021200Y0039700D01*
X0021074Y0039702D01*
X0020949Y0039708D01*
X0020824Y0039718D01*
X0020699Y0039732D01*
X0020574Y0039749D01*
X0020450Y0039771D01*
X0020327Y0039796D01*
X0020205Y0039826D01*
X0020084Y0039859D01*
X0019964Y0039896D01*
X0019845Y0039936D01*
X0019728Y0039981D01*
X0019611Y0040029D01*
X0019497Y0040081D01*
X0019384Y0040136D01*
X0019273Y0040195D01*
X0019164Y0040257D01*
X0019057Y0040323D01*
X0018952Y0040392D01*
X0018849Y0040464D01*
X0018748Y0040539D01*
X0018650Y0040618D01*
X0018555Y0040700D01*
X0018462Y0040784D01*
X0018372Y0040872D01*
X0018284Y0040962D01*
X0018200Y0041055D01*
X0018118Y0041150D01*
X0018039Y0041248D01*
X0017964Y0041349D01*
X0017892Y0041452D01*
X0017823Y0041557D01*
X0017757Y0041664D01*
X0017695Y0041773D01*
X0017636Y0041884D01*
X0017581Y0041997D01*
X0017529Y0042111D01*
X0017481Y0042228D01*
X0017436Y0042345D01*
X0017396Y0042464D01*
X0017359Y0042584D01*
X0017326Y0042705D01*
X0017296Y0042827D01*
X0017271Y0042950D01*
X0017249Y0043074D01*
X0017232Y0043199D01*
X0017218Y0043324D01*
X0017208Y0043449D01*
X0017202Y0043574D01*
X0017200Y0043700D01*
X0009700Y0043700D01*
X0009700Y0003700D01*
X0041900Y0046000D02*
X0041900Y0052405D01*
X0061900Y0052405D02*
X0061900Y0046000D01*
X0061900Y0052405D01*
X0081900Y0052405D02*
X0081900Y0046000D01*
D12*
X0081281Y0047202D02*
X0078212Y0047202D01*
X0079746Y0048737D02*
X0079746Y0045667D01*
X0076677Y0045667D02*
X0076677Y0048737D01*
X0075910Y0049504D01*
X0073608Y0049504D01*
X0073608Y0044900D01*
X0075910Y0044900D01*
X0076677Y0045667D01*
X0072073Y0044900D02*
X0069004Y0044900D01*
X0069004Y0049504D01*
X0072073Y0049504D01*
X0070539Y0047202D02*
X0069004Y0047202D01*
X0067469Y0044900D02*
X0064400Y0044900D01*
X0064400Y0049504D01*
X0057677Y0048737D02*
X0056910Y0049504D01*
X0055375Y0049504D01*
X0054608Y0048737D01*
X0054608Y0047969D01*
X0055375Y0047202D01*
X0056910Y0047202D01*
X0057677Y0046435D01*
X0057677Y0045667D01*
X0056910Y0044900D01*
X0055375Y0044900D01*
X0054608Y0045667D01*
X0053073Y0044900D02*
X0050771Y0044900D01*
X0050004Y0045667D01*
X0050004Y0047202D01*
X0050771Y0047969D01*
X0053073Y0047969D01*
X0053073Y0049504D02*
X0053073Y0044900D01*
X0048469Y0045667D02*
X0047702Y0044900D01*
X0046167Y0044900D01*
X0045400Y0045667D01*
X0045400Y0048737D01*
X0046167Y0049504D01*
X0047702Y0049504D01*
X0048469Y0048737D01*
X0038677Y0048737D02*
X0038677Y0047969D01*
X0035608Y0044900D01*
X0038677Y0044900D01*
X0034073Y0044900D02*
X0034073Y0049504D01*
X0035608Y0048737D02*
X0036375Y0049504D01*
X0037910Y0049504D01*
X0038677Y0048737D01*
X0034073Y0044900D02*
X0032539Y0046435D01*
X0031004Y0044900D01*
X0031004Y0049504D01*
X0029469Y0048737D02*
X0028702Y0049504D01*
X0027167Y0049504D01*
X0026400Y0048737D01*
X0026400Y0047969D01*
X0027167Y0047202D01*
X0028702Y0047202D01*
X0029469Y0046435D01*
X0029469Y0045667D01*
X0028702Y0044900D01*
X0027167Y0044900D01*
X0026400Y0045667D01*
X0018677Y0044900D02*
X0015608Y0044900D01*
X0014073Y0044900D02*
X0014073Y0049504D01*
X0015608Y0047969D02*
X0017142Y0049504D01*
X0017142Y0044900D01*
X0014073Y0044900D02*
X0012539Y0046435D01*
X0011004Y0044900D01*
X0011004Y0049504D01*
X0009469Y0048737D02*
X0008702Y0049504D01*
X0007167Y0049504D01*
X0006400Y0048737D01*
X0006400Y0047969D01*
X0007167Y0047202D01*
X0008702Y0047202D01*
X0009469Y0046435D01*
X0009469Y0045667D01*
X0008702Y0044900D01*
X0007167Y0044900D01*
X0006400Y0045667D01*
X0088202Y0046296D02*
X0088202Y0049365D01*
X0094167Y0047831D02*
X0097237Y0047831D01*
X0095702Y0046296D02*
X0095702Y0049365D01*
D13*
X0092750Y0037278D02*
X0092750Y0036277D01*
X0092750Y0036777D02*
X0091249Y0036777D01*
X0091749Y0036277D01*
X0091499Y0035804D02*
X0091249Y0035554D01*
X0091249Y0035054D01*
X0091499Y0034803D01*
X0092500Y0034803D01*
X0092750Y0035054D01*
X0092750Y0035554D01*
X0092500Y0035804D01*
X0091249Y0033278D02*
X0091249Y0032277D01*
X0092750Y0032277D01*
X0092750Y0031804D02*
X0091749Y0031804D01*
X0091999Y0032277D02*
X0091999Y0032777D01*
X0092750Y0031804D02*
X0092750Y0031054D01*
X0092500Y0030803D01*
X0091749Y0030803D01*
X0092750Y0030331D02*
X0092750Y0029330D01*
X0092750Y0028844D02*
X0092500Y0028844D01*
X0092500Y0028594D01*
X0092750Y0028594D01*
X0092750Y0028844D01*
X0092500Y0028121D02*
X0092750Y0027871D01*
X0092750Y0027371D01*
X0092500Y0027120D01*
X0091499Y0028121D01*
X0092500Y0028121D01*
X0091499Y0028121D02*
X0091249Y0027871D01*
X0091249Y0027371D01*
X0091499Y0027120D01*
X0092500Y0027120D01*
X0091749Y0029330D02*
X0091249Y0029831D01*
X0092750Y0029831D01*
X0075617Y0008251D02*
X0074616Y0008251D01*
X0074616Y0007501D01*
X0075117Y0007751D01*
X0075367Y0007751D01*
X0075617Y0007501D01*
X0075617Y0007000D01*
X0075367Y0006750D01*
X0074866Y0006750D01*
X0074616Y0007000D01*
X0074144Y0007000D02*
X0073894Y0006750D01*
X0073393Y0006750D01*
X0073143Y0007000D01*
X0074144Y0008001D01*
X0074144Y0007000D01*
X0073143Y0007000D02*
X0073143Y0008001D01*
X0073393Y0008251D01*
X0073894Y0008251D01*
X0074144Y0008001D01*
X0072671Y0008001D02*
X0072671Y0007751D01*
X0072420Y0007501D01*
X0071920Y0007501D01*
X0071670Y0007751D01*
X0071670Y0008001D01*
X0071920Y0008251D01*
X0072420Y0008251D01*
X0072671Y0008001D01*
X0072420Y0007501D02*
X0072671Y0007250D01*
X0072671Y0007000D01*
X0072420Y0006750D01*
X0071920Y0006750D01*
X0071670Y0007000D01*
X0071670Y0007250D01*
X0071920Y0007501D01*
X0071197Y0008001D02*
X0071197Y0008251D01*
X0070197Y0008251D01*
X0069724Y0008251D02*
X0069224Y0007751D01*
X0068723Y0008251D01*
X0068723Y0006750D01*
X0068251Y0006750D02*
X0067250Y0006750D01*
X0067250Y0008251D01*
X0065724Y0008001D02*
X0065474Y0008251D01*
X0064973Y0008251D01*
X0064723Y0008001D01*
X0064251Y0008251D02*
X0064251Y0007000D01*
X0064001Y0006750D01*
X0063500Y0006750D01*
X0063250Y0007000D01*
X0063250Y0008251D01*
X0064723Y0006750D02*
X0065724Y0007751D01*
X0065724Y0008001D01*
X0065724Y0006750D02*
X0064723Y0006750D01*
X0069724Y0006750D02*
X0069724Y0008251D01*
X0070197Y0007000D02*
X0070197Y0006750D01*
X0070197Y0007000D02*
X0071197Y0008001D01*
X0024250Y0022554D02*
X0024000Y0022303D01*
X0022749Y0022303D01*
X0022749Y0023304D02*
X0024000Y0023304D01*
X0024250Y0023054D01*
X0024250Y0022554D01*
X0024250Y0023777D02*
X0024250Y0024778D01*
X0024250Y0024277D02*
X0022749Y0024277D01*
X0023249Y0023777D01*
D14*
X0051200Y0027700D02*
X0052200Y0027700D01*
X0053200Y0027700D01*
X0052200Y0027700D02*
X0052200Y0030700D01*
X0052200Y0027700D02*
X0052200Y0024700D01*
X0052200Y0019700D02*
X0052200Y0016700D01*
X0051200Y0016700D01*
X0052200Y0016700D02*
X0053200Y0016700D01*
X0052200Y0016700D02*
X0052200Y0013700D01*
X0062200Y0006200D02*
X0102200Y0006200D01*
X0102200Y0003700D01*
X0062200Y0003700D01*
X0062200Y0006200D01*
X0062200Y0021200D01*
X0102200Y0021200D01*
X0102200Y0006200D01*
X0084446Y0025200D02*
X0067954Y0025200D01*
X0068700Y0039200D02*
X0068916Y0039380D01*
X0069136Y0039555D01*
X0069360Y0039725D01*
X0069589Y0039889D01*
X0069821Y0040047D01*
X0070057Y0040200D01*
X0070297Y0040347D01*
X0070540Y0040488D01*
X0070787Y0040623D01*
X0071036Y0040752D01*
X0071289Y0040875D01*
X0071545Y0040992D01*
X0071804Y0041103D01*
X0072065Y0041207D01*
X0072329Y0041304D01*
X0072595Y0041396D01*
X0072863Y0041480D01*
X0073133Y0041558D01*
X0073405Y0041630D01*
X0073679Y0041695D01*
X0073954Y0041753D01*
X0074230Y0041804D01*
X0074508Y0041849D01*
X0074787Y0041887D01*
X0075066Y0041918D01*
X0075346Y0041942D01*
X0075627Y0041960D01*
X0075908Y0041970D01*
X0076189Y0041974D01*
X0076470Y0041971D01*
X0076751Y0041961D01*
X0077032Y0041944D01*
X0077312Y0041920D01*
X0077592Y0041890D01*
X0077870Y0041852D01*
X0078148Y0041808D01*
X0078425Y0041757D01*
X0078700Y0041700D01*
X0079700Y0050700D02*
X0074700Y0050700D01*
X0072200Y0053200D01*
X0069700Y0050700D01*
X0064700Y0050700D01*
X0062200Y0053200D01*
X0059700Y0050700D01*
X0054700Y0050700D01*
X0052200Y0053200D01*
X0049700Y0050700D01*
X0044700Y0050700D01*
X0042200Y0053200D01*
X0039700Y0050700D01*
X0034700Y0050700D01*
X0032200Y0053200D01*
X0029700Y0050700D01*
X0024700Y0050700D01*
X0022200Y0053200D01*
X0019700Y0050700D01*
X0014700Y0050700D01*
X0012200Y0053200D01*
X0009700Y0050700D01*
X0004700Y0050700D01*
X0002200Y0053200D01*
X0002200Y0058200D01*
X0004700Y0060700D01*
X0009700Y0060700D01*
X0012200Y0058200D01*
X0014700Y0060700D01*
X0019700Y0060700D01*
X0022200Y0058200D01*
X0024700Y0060700D01*
X0029700Y0060700D01*
X0032200Y0058200D01*
X0034700Y0060700D01*
X0039700Y0060700D01*
X0042200Y0058200D01*
X0044700Y0060700D01*
X0049700Y0060700D01*
X0052200Y0058200D01*
X0054700Y0060700D01*
X0059700Y0060700D01*
X0062200Y0058200D01*
X0064700Y0060700D01*
X0069700Y0060700D01*
X0072200Y0058200D01*
X0074700Y0060700D01*
X0079700Y0060700D01*
X0082200Y0058200D01*
X0084700Y0060700D01*
X0089700Y0060700D01*
X0092200Y0058200D01*
X0094700Y0060700D01*
X0099700Y0060700D01*
X0102200Y0058200D01*
X0102200Y0053200D01*
X0099700Y0050700D01*
X0094700Y0050700D01*
X0092200Y0053200D01*
X0089700Y0050700D01*
X0084700Y0050700D01*
X0082200Y0053200D01*
X0079700Y0050700D01*
X0053200Y0038700D02*
X0052200Y0038700D01*
X0051200Y0038700D01*
X0052200Y0038700D02*
X0052200Y0041700D01*
X0052200Y0038700D02*
X0052200Y0035700D01*
X0078700Y0041700D02*
X0078975Y0041635D01*
X0079248Y0041564D01*
X0079519Y0041486D01*
X0079789Y0041401D01*
X0080056Y0041310D01*
X0080321Y0041212D01*
X0080583Y0041108D01*
X0080843Y0040997D01*
X0081100Y0040881D01*
X0081354Y0040757D01*
X0081605Y0040628D01*
X0081852Y0040493D01*
X0082097Y0040351D01*
X0082337Y0040204D01*
X0082574Y0040050D01*
X0082808Y0039891D01*
X0083037Y0039727D01*
X0083262Y0039556D01*
X0083483Y0039381D01*
X0083700Y0039200D01*
X0094700Y0032700D02*
X0099700Y0032700D01*
X0078700Y0041700D02*
X0078426Y0041757D01*
X0078151Y0041808D01*
X0077874Y0041852D01*
X0077597Y0041889D01*
X0077318Y0041920D01*
X0077039Y0041943D01*
X0076760Y0041960D01*
X0076480Y0041971D01*
X0076200Y0041974D01*
X0075920Y0041971D01*
X0075640Y0041960D01*
X0075361Y0041943D01*
X0075082Y0041920D01*
X0074803Y0041889D01*
X0074526Y0041852D01*
X0074249Y0041808D01*
X0073974Y0041757D01*
X0073700Y0041700D01*
D15*
X0072961Y0042065D02*
X0073173Y0041377D01*
X0073172Y0041377D02*
X0072937Y0041301D01*
X0072703Y0041218D01*
X0072471Y0041130D01*
X0072242Y0041036D01*
X0072015Y0040936D01*
X0071791Y0040831D01*
X0071569Y0040721D01*
X0071350Y0040605D01*
X0071133Y0040483D01*
X0070920Y0040357D01*
X0070710Y0040225D01*
X0070503Y0040089D01*
X0070300Y0039947D01*
X0070100Y0039800D01*
X0069904Y0039649D01*
X0069712Y0039492D01*
X0069523Y0039331D01*
X0069339Y0039166D01*
X0069158Y0038996D01*
X0068982Y0038822D01*
X0068810Y0038643D01*
X0068643Y0038461D01*
X0068480Y0038274D01*
X0068321Y0038083D01*
X0068168Y0037889D01*
X0068019Y0037690D01*
X0067875Y0037489D01*
X0067736Y0037283D01*
X0067602Y0037075D01*
X0067473Y0036863D01*
X0067349Y0036648D01*
X0067231Y0036430D01*
X0067118Y0036210D01*
X0067011Y0035986D01*
X0066909Y0035761D01*
X0066812Y0035532D01*
X0066721Y0035302D01*
X0066636Y0035069D01*
X0066557Y0034834D01*
X0066483Y0034597D01*
X0066415Y0034359D01*
X0066353Y0034119D01*
X0066297Y0033878D01*
X0066246Y0033635D01*
X0066202Y0033391D01*
X0066164Y0033146D01*
X0066131Y0032900D01*
X0066105Y0032654D01*
X0066085Y0032407D01*
X0066070Y0032160D01*
X0066062Y0031912D01*
X0066060Y0031664D01*
X0066064Y0031416D01*
X0066074Y0031168D01*
X0066090Y0030921D01*
X0066112Y0030674D01*
X0066140Y0030428D01*
X0066174Y0030182D01*
X0066214Y0029938D01*
X0066260Y0029694D01*
X0066312Y0029452D01*
X0066370Y0029211D01*
X0066434Y0028971D01*
X0066504Y0028734D01*
X0066579Y0028497D01*
X0066660Y0028263D01*
X0066747Y0028031D01*
X0066840Y0027801D01*
X0066938Y0027573D01*
X0067041Y0027348D01*
X0067150Y0027126D01*
X0067265Y0026906D01*
X0067385Y0026689D01*
X0067510Y0026475D01*
X0067640Y0026264D01*
X0067776Y0026057D01*
X0067916Y0025852D01*
X0068061Y0025652D01*
X0068212Y0025454D01*
X0067647Y0025009D01*
X0067646Y0025009D01*
X0067485Y0025220D01*
X0067329Y0025435D01*
X0067179Y0025654D01*
X0067034Y0025876D01*
X0066894Y0026102D01*
X0066760Y0026331D01*
X0066632Y0026563D01*
X0066509Y0026799D01*
X0066392Y0027037D01*
X0066281Y0027279D01*
X0066176Y0027522D01*
X0066077Y0027769D01*
X0065983Y0028017D01*
X0065896Y0028268D01*
X0065816Y0028521D01*
X0065741Y0028776D01*
X0065673Y0029033D01*
X0065611Y0029291D01*
X0065555Y0029550D01*
X0065505Y0029811D01*
X0065463Y0030073D01*
X0065426Y0030336D01*
X0065396Y0030600D01*
X0065372Y0030865D01*
X0065355Y0031130D01*
X0065344Y0031395D01*
X0065340Y0031660D01*
X0065342Y0031926D01*
X0065351Y0032191D01*
X0065366Y0032457D01*
X0065388Y0032721D01*
X0065416Y0032985D01*
X0065451Y0033248D01*
X0065492Y0033511D01*
X0065540Y0033772D01*
X0065593Y0034032D01*
X0065654Y0034291D01*
X0065720Y0034548D01*
X0065793Y0034803D01*
X0065872Y0035057D01*
X0065957Y0035308D01*
X0066048Y0035558D01*
X0066146Y0035805D01*
X0066249Y0036049D01*
X0066358Y0036291D01*
X0066473Y0036530D01*
X0066594Y0036767D01*
X0066721Y0037000D01*
X0066854Y0037230D01*
X0066992Y0037457D01*
X0067135Y0037681D01*
X0067284Y0037900D01*
X0067438Y0038117D01*
X0067598Y0038329D01*
X0067762Y0038537D01*
X0067932Y0038741D01*
X0068107Y0038941D01*
X0068286Y0039137D01*
X0068470Y0039328D01*
X0068659Y0039515D01*
X0068853Y0039697D01*
X0069050Y0039874D01*
X0069252Y0040047D01*
X0069458Y0040214D01*
X0069669Y0040376D01*
X0069883Y0040534D01*
X0070101Y0040685D01*
X0070322Y0040832D01*
X0070547Y0040973D01*
X0070775Y0041108D01*
X0071007Y0041238D01*
X0071242Y0041362D01*
X0071480Y0041480D01*
X0071720Y0041593D01*
X0071963Y0041700D01*
X0072209Y0041800D01*
X0072457Y0041895D01*
X0072708Y0041983D01*
X0072960Y0042065D01*
X0072982Y0041994D01*
X0072731Y0041912D01*
X0072483Y0041824D01*
X0072236Y0041730D01*
X0071992Y0041630D01*
X0071751Y0041525D01*
X0071512Y0041413D01*
X0071276Y0041295D01*
X0071043Y0041172D01*
X0070813Y0041043D01*
X0070586Y0040909D01*
X0070362Y0040769D01*
X0070143Y0040623D01*
X0069926Y0040472D01*
X0069714Y0040316D01*
X0069505Y0040155D01*
X0069300Y0039989D01*
X0069100Y0039818D01*
X0068903Y0039642D01*
X0068711Y0039461D01*
X0068524Y0039276D01*
X0068341Y0039086D01*
X0068163Y0038891D01*
X0067989Y0038693D01*
X0067821Y0038490D01*
X0067657Y0038283D01*
X0067499Y0038072D01*
X0067346Y0037858D01*
X0067198Y0037639D01*
X0067055Y0037417D01*
X0066918Y0037192D01*
X0066787Y0036963D01*
X0066661Y0036732D01*
X0066541Y0036497D01*
X0066426Y0036259D01*
X0066318Y0036019D01*
X0066215Y0035776D01*
X0066118Y0035531D01*
X0066028Y0035283D01*
X0065943Y0035034D01*
X0065865Y0034782D01*
X0065792Y0034528D01*
X0065726Y0034273D01*
X0065667Y0034016D01*
X0065613Y0033758D01*
X0065566Y0033498D01*
X0065525Y0033238D01*
X0065491Y0032976D01*
X0065463Y0032714D01*
X0065441Y0032451D01*
X0065426Y0032188D01*
X0065417Y0031925D01*
X0065415Y0031661D01*
X0065419Y0031397D01*
X0065430Y0031134D01*
X0065447Y0030871D01*
X0065470Y0030608D01*
X0065500Y0030346D01*
X0065537Y0030085D01*
X0065579Y0029825D01*
X0065628Y0029565D01*
X0065684Y0029308D01*
X0065745Y0029051D01*
X0065813Y0028796D01*
X0065887Y0028543D01*
X0065968Y0028292D01*
X0066054Y0028043D01*
X0066146Y0027796D01*
X0066245Y0027551D01*
X0066349Y0027309D01*
X0066460Y0027070D01*
X0066576Y0026833D01*
X0066698Y0026599D01*
X0066825Y0026368D01*
X0066958Y0026141D01*
X0067097Y0025916D01*
X0067241Y0025696D01*
X0067390Y0025478D01*
X0067545Y0025265D01*
X0067705Y0025055D01*
X0067764Y0025102D01*
X0067605Y0025310D01*
X0067452Y0025522D01*
X0067303Y0025738D01*
X0067160Y0025957D01*
X0067022Y0026180D01*
X0066890Y0026406D01*
X0066763Y0026635D01*
X0066642Y0026867D01*
X0066527Y0027102D01*
X0066418Y0027340D01*
X0066314Y0027580D01*
X0066216Y0027823D01*
X0066124Y0028069D01*
X0066039Y0028316D01*
X0065959Y0028565D01*
X0065885Y0028817D01*
X0065818Y0029070D01*
X0065757Y0029324D01*
X0065702Y0029580D01*
X0065653Y0029838D01*
X0065611Y0030096D01*
X0065575Y0030355D01*
X0065545Y0030616D01*
X0065522Y0030876D01*
X0065505Y0031138D01*
X0065494Y0031399D01*
X0065490Y0031661D01*
X0065492Y0031923D01*
X0065501Y0032185D01*
X0065516Y0032446D01*
X0065537Y0032707D01*
X0065565Y0032968D01*
X0065599Y0033227D01*
X0065640Y0033486D01*
X0065687Y0033744D01*
X0065740Y0034000D01*
X0065799Y0034255D01*
X0065865Y0034508D01*
X0065937Y0034760D01*
X0066014Y0035010D01*
X0066098Y0035258D01*
X0066188Y0035504D01*
X0066284Y0035748D01*
X0066386Y0035989D01*
X0066494Y0036228D01*
X0066608Y0036464D01*
X0066727Y0036697D01*
X0066852Y0036927D01*
X0066983Y0037154D01*
X0067119Y0037378D01*
X0067260Y0037598D01*
X0067407Y0037815D01*
X0067559Y0038028D01*
X0067716Y0038237D01*
X0067879Y0038443D01*
X0068046Y0038644D01*
X0068218Y0038841D01*
X0068395Y0039034D01*
X0068577Y0039223D01*
X0068763Y0039407D01*
X0068954Y0039587D01*
X0069149Y0039761D01*
X0069348Y0039931D01*
X0069551Y0040096D01*
X0069759Y0040256D01*
X0069970Y0040411D01*
X0070184Y0040561D01*
X0070403Y0040705D01*
X0070625Y0040844D01*
X0070850Y0040978D01*
X0071078Y0041106D01*
X0071310Y0041228D01*
X0071544Y0041345D01*
X0071782Y0041456D01*
X0072021Y0041561D01*
X0072264Y0041660D01*
X0072508Y0041754D01*
X0072755Y0041841D01*
X0073004Y0041922D01*
X0073026Y0041850D01*
X0072779Y0041770D01*
X0072534Y0041683D01*
X0072291Y0041591D01*
X0072050Y0041492D01*
X0071812Y0041388D01*
X0071577Y0041278D01*
X0071344Y0041162D01*
X0071114Y0041040D01*
X0070887Y0040913D01*
X0070664Y0040780D01*
X0070443Y0040642D01*
X0070226Y0040499D01*
X0070013Y0040350D01*
X0069804Y0040196D01*
X0069598Y0040037D01*
X0069396Y0039874D01*
X0069198Y0039705D01*
X0069004Y0039531D01*
X0068815Y0039353D01*
X0068630Y0039170D01*
X0068450Y0038983D01*
X0068274Y0038791D01*
X0068103Y0038595D01*
X0067937Y0038395D01*
X0067776Y0038191D01*
X0067620Y0037983D01*
X0067469Y0037772D01*
X0067323Y0037556D01*
X0067182Y0037338D01*
X0067047Y0037116D01*
X0066917Y0036890D01*
X0066793Y0036662D01*
X0066675Y0036430D01*
X0066562Y0036196D01*
X0066455Y0035959D01*
X0066354Y0035719D01*
X0066259Y0035478D01*
X0066169Y0035233D01*
X0066086Y0034987D01*
X0066008Y0034739D01*
X0065937Y0034489D01*
X0065872Y0034237D01*
X0065813Y0033984D01*
X0065760Y0033729D01*
X0065714Y0033473D01*
X0065674Y0033217D01*
X0065640Y0032959D01*
X0065612Y0032700D01*
X0065591Y0032441D01*
X0065576Y0032181D01*
X0065567Y0031922D01*
X0065565Y0031662D01*
X0065569Y0031402D01*
X0065580Y0031142D01*
X0065596Y0030882D01*
X0065620Y0030623D01*
X0065649Y0030365D01*
X0065685Y0030107D01*
X0065727Y0029851D01*
X0065775Y0029595D01*
X0065830Y0029341D01*
X0065891Y0029088D01*
X0065958Y0028837D01*
X0066031Y0028588D01*
X0066110Y0028340D01*
X0066195Y0028094D01*
X0066286Y0027851D01*
X0066383Y0027609D01*
X0066486Y0027371D01*
X0066595Y0027135D01*
X0066709Y0026901D01*
X0066829Y0026670D01*
X0066955Y0026443D01*
X0067087Y0026218D01*
X0067223Y0025997D01*
X0067365Y0025780D01*
X0067513Y0025565D01*
X0067665Y0025355D01*
X0067823Y0025148D01*
X0067882Y0025194D01*
X0067725Y0025400D01*
X0067574Y0025609D01*
X0067427Y0025822D01*
X0067286Y0026038D01*
X0067151Y0026257D01*
X0067020Y0026480D01*
X0066895Y0026706D01*
X0066776Y0026935D01*
X0066662Y0027167D01*
X0066554Y0027401D01*
X0066452Y0027638D01*
X0066356Y0027878D01*
X0066265Y0028120D01*
X0066181Y0028364D01*
X0066102Y0028610D01*
X0066030Y0028857D01*
X0065963Y0029107D01*
X0065903Y0029358D01*
X0065849Y0029610D01*
X0065801Y0029864D01*
X0065759Y0030119D01*
X0065724Y0030375D01*
X0065694Y0030631D01*
X0065671Y0030888D01*
X0065655Y0031146D01*
X0065644Y0031404D01*
X0065640Y0031662D01*
X0065642Y0031920D01*
X0065651Y0032178D01*
X0065666Y0032436D01*
X0065687Y0032693D01*
X0065714Y0032950D01*
X0065748Y0033206D01*
X0065788Y0033461D01*
X0065834Y0033715D01*
X0065886Y0033968D01*
X0065945Y0034219D01*
X0066010Y0034469D01*
X0066080Y0034717D01*
X0066157Y0034964D01*
X0066240Y0035208D01*
X0066329Y0035451D01*
X0066423Y0035691D01*
X0066524Y0035929D01*
X0066630Y0036164D01*
X0066742Y0036397D01*
X0066860Y0036627D01*
X0066983Y0036854D01*
X0067112Y0037077D01*
X0067246Y0037298D01*
X0067385Y0037515D01*
X0067530Y0037729D01*
X0067680Y0037939D01*
X0067835Y0038145D01*
X0067995Y0038348D01*
X0068160Y0038547D01*
X0068330Y0038741D01*
X0068504Y0038931D01*
X0068684Y0039117D01*
X0068867Y0039299D01*
X0069055Y0039476D01*
X0069247Y0039648D01*
X0069444Y0039816D01*
X0069644Y0039979D01*
X0069848Y0040136D01*
X0070057Y0040289D01*
X0070268Y0040437D01*
X0070484Y0040579D01*
X0070703Y0040716D01*
X0070925Y0040848D01*
X0071150Y0040974D01*
X0071378Y0041095D01*
X0071609Y0041210D01*
X0071843Y0041319D01*
X0072079Y0041423D01*
X0072318Y0041521D01*
X0072560Y0041613D01*
X0072803Y0041699D01*
X0073048Y0041779D01*
X0073071Y0041707D01*
X0072827Y0041628D01*
X0072585Y0041542D01*
X0072346Y0041451D01*
X0072108Y0041354D01*
X0071874Y0041251D01*
X0071642Y0041142D01*
X0071412Y0041028D01*
X0071185Y0040908D01*
X0070962Y0040783D01*
X0070741Y0040652D01*
X0070524Y0040516D01*
X0070310Y0040375D01*
X0070100Y0040228D01*
X0069893Y0040076D01*
X0069691Y0039920D01*
X0069492Y0039758D01*
X0069297Y0039592D01*
X0069106Y0039421D01*
X0068919Y0039245D01*
X0068737Y0039065D01*
X0068559Y0038880D01*
X0068386Y0038691D01*
X0068217Y0038498D01*
X0068053Y0038301D01*
X0067895Y0038100D01*
X0067741Y0037895D01*
X0067592Y0037686D01*
X0067448Y0037474D01*
X0067309Y0037258D01*
X0067176Y0037039D01*
X0067048Y0036817D01*
X0066926Y0036592D01*
X0066809Y0036363D01*
X0066698Y0036132D01*
X0066592Y0035899D01*
X0066493Y0035663D01*
X0066399Y0035424D01*
X0066311Y0035184D01*
X0066228Y0034941D01*
X0066152Y0034696D01*
X0066082Y0034450D01*
X0066018Y0034201D01*
X0065960Y0033952D01*
X0065908Y0033701D01*
X0065862Y0033448D01*
X0065822Y0033195D01*
X0065789Y0032941D01*
X0065761Y0032686D01*
X0065740Y0032431D01*
X0065726Y0032175D01*
X0065717Y0031919D01*
X0065715Y0031662D01*
X0065719Y0031406D01*
X0065729Y0031150D01*
X0065746Y0030894D01*
X0065769Y0030639D01*
X0065798Y0030384D01*
X0065833Y0030130D01*
X0065875Y0029877D01*
X0065922Y0029625D01*
X0065976Y0029375D01*
X0066036Y0029125D01*
X0066102Y0028878D01*
X0066174Y0028632D01*
X0066252Y0028388D01*
X0066336Y0028145D01*
X0066426Y0027905D01*
X0066521Y0027668D01*
X0066623Y0027432D01*
X0066730Y0027199D01*
X0066843Y0026969D01*
X0066961Y0026742D01*
X0067085Y0026517D01*
X0067215Y0026296D01*
X0067350Y0026078D01*
X0067490Y0025863D01*
X0067635Y0025652D01*
X0067785Y0025445D01*
X0067941Y0025241D01*
X0068000Y0025287D01*
X0067845Y0025490D01*
X0067696Y0025696D01*
X0067552Y0025905D01*
X0067413Y0026119D01*
X0067279Y0026335D01*
X0067150Y0026555D01*
X0067027Y0026777D01*
X0066910Y0027003D01*
X0066798Y0027232D01*
X0066691Y0027463D01*
X0066591Y0027697D01*
X0066496Y0027933D01*
X0066406Y0028171D01*
X0066323Y0028411D01*
X0066246Y0028654D01*
X0066174Y0028898D01*
X0066109Y0029144D01*
X0066049Y0029392D01*
X0065996Y0029640D01*
X0065948Y0029890D01*
X0065907Y0030142D01*
X0065872Y0030394D01*
X0065843Y0030646D01*
X0065821Y0030900D01*
X0065804Y0031154D01*
X0065794Y0031408D01*
X0065790Y0031663D01*
X0065792Y0031917D01*
X0065801Y0032171D01*
X0065815Y0032426D01*
X0065836Y0032679D01*
X0065863Y0032932D01*
X0065896Y0033185D01*
X0065936Y0033436D01*
X0065981Y0033686D01*
X0066033Y0033936D01*
X0066091Y0034183D01*
X0066154Y0034430D01*
X0066224Y0034675D01*
X0066300Y0034918D01*
X0066381Y0035159D01*
X0066469Y0035398D01*
X0066562Y0035634D01*
X0066661Y0035869D01*
X0066766Y0036101D01*
X0066876Y0036330D01*
X0066992Y0036557D01*
X0067114Y0036780D01*
X0067241Y0037001D01*
X0067373Y0037218D01*
X0067510Y0037432D01*
X0067653Y0037643D01*
X0067801Y0037850D01*
X0067954Y0038054D01*
X0068112Y0038253D01*
X0068274Y0038449D01*
X0068442Y0038641D01*
X0068614Y0038828D01*
X0068790Y0039012D01*
X0068971Y0039191D01*
X0069156Y0039365D01*
X0069346Y0039535D01*
X0069539Y0039700D01*
X0069737Y0039861D01*
X0069938Y0040016D01*
X0070144Y0040167D01*
X0070352Y0040312D01*
X0070565Y0040453D01*
X0070780Y0040588D01*
X0070999Y0040718D01*
X0071221Y0040842D01*
X0071446Y0040961D01*
X0071674Y0041075D01*
X0071904Y0041182D01*
X0072138Y0041285D01*
X0072373Y0041381D01*
X0072611Y0041472D01*
X0072851Y0041557D01*
X0073093Y0041635D01*
X0073115Y0041564D01*
X0072875Y0041485D01*
X0072636Y0041401D01*
X0072400Y0041311D01*
X0072167Y0041215D01*
X0071935Y0041114D01*
X0071706Y0041007D01*
X0071480Y0040894D01*
X0071257Y0040776D01*
X0071036Y0040653D01*
X0070819Y0040524D01*
X0070605Y0040390D01*
X0070394Y0040250D01*
X0070187Y0040106D01*
X0069983Y0039956D01*
X0069783Y0039802D01*
X0069587Y0039643D01*
X0069395Y0039479D01*
X0069207Y0039310D01*
X0069023Y0039137D01*
X0068843Y0038959D01*
X0068668Y0038777D01*
X0068497Y0038591D01*
X0068331Y0038400D01*
X0068170Y0038206D01*
X0068013Y0038008D01*
X0067861Y0037806D01*
X0067715Y0037600D01*
X0067573Y0037391D01*
X0067436Y0037178D01*
X0067305Y0036963D01*
X0067179Y0036744D01*
X0067059Y0036522D01*
X0066943Y0036297D01*
X0066834Y0036069D01*
X0066730Y0035839D01*
X0066632Y0035606D01*
X0066539Y0035371D01*
X0066452Y0035134D01*
X0066371Y0034894D01*
X0066296Y0034653D01*
X0066227Y0034410D01*
X0066163Y0034166D01*
X0066106Y0033920D01*
X0066055Y0033672D01*
X0066010Y0033424D01*
X0065971Y0033174D01*
X0065938Y0032923D01*
X0065911Y0032672D01*
X0065890Y0032420D01*
X0065876Y0032168D01*
X0065867Y0031916D01*
X0065865Y0031663D01*
X0065869Y0031410D01*
X0065879Y0031158D01*
X0065896Y0030906D01*
X0065918Y0030654D01*
X0065947Y0030403D01*
X0065981Y0030153D01*
X0066022Y0029904D01*
X0066069Y0029655D01*
X0066122Y0029408D01*
X0066181Y0029163D01*
X0066246Y0028918D01*
X0066317Y0028676D01*
X0066394Y0028435D01*
X0066477Y0028197D01*
X0066565Y0027960D01*
X0066660Y0027726D01*
X0066760Y0027494D01*
X0066865Y0027264D01*
X0066977Y0027037D01*
X0067093Y0026813D01*
X0067216Y0026592D01*
X0067343Y0026374D01*
X0067476Y0026159D01*
X0067614Y0025947D01*
X0067757Y0025739D01*
X0067905Y0025535D01*
X0068059Y0025334D01*
X0068117Y0025380D01*
X0067965Y0025580D01*
X0067818Y0025783D01*
X0067676Y0025989D01*
X0067539Y0026199D01*
X0067407Y0026413D01*
X0067281Y0026629D01*
X0067159Y0026849D01*
X0067043Y0027071D01*
X0066933Y0027296D01*
X0066828Y0027524D01*
X0066729Y0027755D01*
X0066635Y0027987D01*
X0066547Y0028222D01*
X0066465Y0028459D01*
X0066389Y0028698D01*
X0066319Y0028939D01*
X0066254Y0029181D01*
X0066195Y0029425D01*
X0066143Y0029670D01*
X0066096Y0029917D01*
X0066056Y0030164D01*
X0066021Y0030413D01*
X0065993Y0030662D01*
X0065970Y0030912D01*
X0065954Y0031162D01*
X0065944Y0031413D01*
X0065940Y0031663D01*
X0065942Y0031914D01*
X0065951Y0032165D01*
X0065965Y0032415D01*
X0065986Y0032665D01*
X0066012Y0032915D01*
X0066045Y0033163D01*
X0066084Y0033411D01*
X0066129Y0033658D01*
X0066179Y0033903D01*
X0066236Y0034148D01*
X0066299Y0034391D01*
X0066368Y0034632D01*
X0066442Y0034871D01*
X0066523Y0035109D01*
X0066609Y0035344D01*
X0066701Y0035578D01*
X0066799Y0035809D01*
X0066902Y0036037D01*
X0067011Y0036263D01*
X0067125Y0036487D01*
X0067245Y0036707D01*
X0067370Y0036924D01*
X0067500Y0037139D01*
X0067636Y0037350D01*
X0067776Y0037557D01*
X0067922Y0037761D01*
X0068073Y0037962D01*
X0068228Y0038159D01*
X0068388Y0038352D01*
X0068553Y0038541D01*
X0068723Y0038726D01*
X0068897Y0038906D01*
X0069075Y0039083D01*
X0069258Y0039255D01*
X0069444Y0039422D01*
X0069635Y0039585D01*
X0069830Y0039743D01*
X0070028Y0039896D01*
X0070231Y0040045D01*
X0070436Y0040188D01*
X0070645Y0040326D01*
X0070858Y0040460D01*
X0071074Y0040588D01*
X0071292Y0040710D01*
X0071514Y0040827D01*
X0071739Y0040939D01*
X0071966Y0041046D01*
X0072196Y0041146D01*
X0072428Y0041241D01*
X0072662Y0041331D01*
X0072899Y0041414D01*
X0073137Y0041492D01*
X0073159Y0041420D01*
X0072922Y0041343D01*
X0072688Y0041260D01*
X0072455Y0041171D01*
X0072225Y0041077D01*
X0071997Y0040977D01*
X0071771Y0040872D01*
X0071548Y0040761D01*
X0071328Y0040644D01*
X0071111Y0040522D01*
X0070897Y0040395D01*
X0070686Y0040263D01*
X0070478Y0040126D01*
X0070274Y0039984D01*
X0070073Y0039836D01*
X0069876Y0039684D01*
X0069683Y0039527D01*
X0069494Y0039365D01*
X0069308Y0039199D01*
X0069127Y0039029D01*
X0068950Y0038853D01*
X0068777Y0038674D01*
X0068609Y0038491D01*
X0068445Y0038303D01*
X0068286Y0038111D01*
X0068132Y0037916D01*
X0067982Y0037717D01*
X0067838Y0037514D01*
X0067698Y0037308D01*
X0067564Y0037099D01*
X0067434Y0036886D01*
X0067310Y0036670D01*
X0067191Y0036451D01*
X0067078Y0036230D01*
X0066970Y0036006D01*
X0066867Y0035779D01*
X0066770Y0035549D01*
X0066679Y0035318D01*
X0066594Y0035084D01*
X0066514Y0034848D01*
X0066440Y0034610D01*
X0066371Y0034371D01*
X0066309Y0034130D01*
X0066253Y0033887D01*
X0066202Y0033644D01*
X0066158Y0033399D01*
X0066119Y0033153D01*
X0066087Y0032906D01*
X0066060Y0032658D01*
X0066040Y0032410D01*
X0066025Y0032162D01*
X0066017Y0031913D01*
X0066015Y0031664D01*
X0066019Y0031415D01*
X0066029Y0031166D01*
X0066045Y0030918D01*
X0066067Y0030670D01*
X0066095Y0030422D01*
X0066130Y0030176D01*
X0066170Y0029930D01*
X0066216Y0029685D01*
X0066268Y0029442D01*
X0066327Y0029200D01*
X0066391Y0028959D01*
X0066461Y0028720D01*
X0066536Y0028483D01*
X0066618Y0028248D01*
X0066705Y0028015D01*
X0066798Y0027784D01*
X0066897Y0027555D01*
X0067001Y0027329D01*
X0067110Y0027105D01*
X0067225Y0026885D01*
X0067346Y0026667D01*
X0067471Y0026452D01*
X0067602Y0026240D01*
X0067738Y0026031D01*
X0067879Y0025826D01*
X0068025Y0025625D01*
X0068176Y0025427D01*
X0084753Y0025009D02*
X0084188Y0025455D01*
X0084188Y0025454D02*
X0084338Y0025651D01*
X0084484Y0025852D01*
X0084624Y0026056D01*
X0084760Y0026264D01*
X0084890Y0026475D01*
X0085015Y0026689D01*
X0085135Y0026906D01*
X0085250Y0027126D01*
X0085359Y0027348D01*
X0085462Y0027573D01*
X0085560Y0027801D01*
X0085653Y0028031D01*
X0085740Y0028263D01*
X0085821Y0028497D01*
X0085896Y0028733D01*
X0085966Y0028971D01*
X0086030Y0029211D01*
X0086088Y0029452D01*
X0086140Y0029694D01*
X0086186Y0029938D01*
X0086226Y0030182D01*
X0086260Y0030428D01*
X0086288Y0030674D01*
X0086310Y0030921D01*
X0086326Y0031168D01*
X0086336Y0031416D01*
X0086340Y0031664D01*
X0086338Y0031912D01*
X0086330Y0032159D01*
X0086315Y0032407D01*
X0086295Y0032654D01*
X0086269Y0032900D01*
X0086236Y0033146D01*
X0086198Y0033391D01*
X0086154Y0033635D01*
X0086103Y0033878D01*
X0086047Y0034119D01*
X0085985Y0034359D01*
X0085917Y0034597D01*
X0085844Y0034834D01*
X0085764Y0035069D01*
X0085679Y0035302D01*
X0085588Y0035532D01*
X0085492Y0035760D01*
X0085389Y0035986D01*
X0085282Y0036210D01*
X0085169Y0036430D01*
X0085051Y0036648D01*
X0084927Y0036863D01*
X0084798Y0037075D01*
X0084664Y0037283D01*
X0084525Y0037489D01*
X0084381Y0037690D01*
X0084233Y0037888D01*
X0084079Y0038083D01*
X0083921Y0038274D01*
X0083758Y0038460D01*
X0083590Y0038643D01*
X0083418Y0038822D01*
X0083242Y0038996D01*
X0083061Y0039166D01*
X0082877Y0039331D01*
X0082688Y0039492D01*
X0082496Y0039649D01*
X0082300Y0039800D01*
X0082100Y0039947D01*
X0081897Y0040089D01*
X0081690Y0040225D01*
X0081480Y0040357D01*
X0081267Y0040483D01*
X0081051Y0040605D01*
X0080831Y0040720D01*
X0080610Y0040831D01*
X0080385Y0040936D01*
X0080158Y0041036D01*
X0079929Y0041130D01*
X0079697Y0041218D01*
X0079463Y0041301D01*
X0079228Y0041377D01*
X0079440Y0042065D01*
X0079693Y0041983D01*
X0079943Y0041895D01*
X0080191Y0041800D01*
X0080437Y0041699D01*
X0080680Y0041593D01*
X0080921Y0041480D01*
X0081158Y0041362D01*
X0081393Y0041238D01*
X0081625Y0041108D01*
X0081853Y0040973D01*
X0082078Y0040832D01*
X0082300Y0040685D01*
X0082517Y0040533D01*
X0082731Y0040376D01*
X0082942Y0040214D01*
X0083148Y0040047D01*
X0083350Y0039874D01*
X0083548Y0039697D01*
X0083741Y0039515D01*
X0083930Y0039328D01*
X0084114Y0039137D01*
X0084293Y0038941D01*
X0084468Y0038741D01*
X0084638Y0038537D01*
X0084802Y0038329D01*
X0084962Y0038116D01*
X0085116Y0037900D01*
X0085265Y0037680D01*
X0085408Y0037457D01*
X0085546Y0037230D01*
X0085679Y0037000D01*
X0085806Y0036767D01*
X0085927Y0036530D01*
X0086042Y0036291D01*
X0086151Y0036049D01*
X0086255Y0035804D01*
X0086352Y0035557D01*
X0086443Y0035308D01*
X0086528Y0035057D01*
X0086607Y0034803D01*
X0086680Y0034548D01*
X0086746Y0034291D01*
X0086807Y0034032D01*
X0086861Y0033772D01*
X0086908Y0033511D01*
X0086949Y0033248D01*
X0086984Y0032985D01*
X0087012Y0032721D01*
X0087034Y0032456D01*
X0087049Y0032191D01*
X0087058Y0031926D01*
X0087060Y0031660D01*
X0087056Y0031395D01*
X0087045Y0031129D01*
X0087028Y0030865D01*
X0087004Y0030600D01*
X0086974Y0030336D01*
X0086937Y0030073D01*
X0086894Y0029811D01*
X0086845Y0029550D01*
X0086789Y0029291D01*
X0086727Y0029032D01*
X0086659Y0028776D01*
X0086584Y0028521D01*
X0086503Y0028268D01*
X0086416Y0028017D01*
X0086323Y0027769D01*
X0086224Y0027522D01*
X0086119Y0027278D01*
X0086008Y0027037D01*
X0085891Y0026799D01*
X0085768Y0026563D01*
X0085640Y0026331D01*
X0085506Y0026102D01*
X0085366Y0025876D01*
X0085221Y0025653D01*
X0085070Y0025435D01*
X0084915Y0025220D01*
X0084754Y0025009D01*
X0084695Y0025055D01*
X0084855Y0025265D01*
X0085009Y0025478D01*
X0085159Y0025695D01*
X0085303Y0025916D01*
X0085442Y0026141D01*
X0085575Y0026368D01*
X0085702Y0026599D01*
X0085824Y0026833D01*
X0085940Y0027070D01*
X0086051Y0027309D01*
X0086155Y0027551D01*
X0086254Y0027796D01*
X0086346Y0028043D01*
X0086432Y0028292D01*
X0086513Y0028543D01*
X0086587Y0028796D01*
X0086655Y0029051D01*
X0086716Y0029307D01*
X0086772Y0029565D01*
X0086821Y0029824D01*
X0086863Y0030085D01*
X0086900Y0030346D01*
X0086930Y0030608D01*
X0086953Y0030870D01*
X0086970Y0031134D01*
X0086981Y0031397D01*
X0086985Y0031661D01*
X0086983Y0031924D01*
X0086974Y0032188D01*
X0086959Y0032451D01*
X0086937Y0032714D01*
X0086909Y0032976D01*
X0086875Y0033238D01*
X0086834Y0033498D01*
X0086787Y0033758D01*
X0086733Y0034016D01*
X0086674Y0034273D01*
X0086608Y0034528D01*
X0086535Y0034782D01*
X0086457Y0035033D01*
X0086372Y0035283D01*
X0086282Y0035531D01*
X0086185Y0035776D01*
X0086082Y0036019D01*
X0085974Y0036259D01*
X0085859Y0036497D01*
X0085739Y0036732D01*
X0085613Y0036963D01*
X0085482Y0037192D01*
X0085345Y0037417D01*
X0085202Y0037639D01*
X0085055Y0037857D01*
X0084901Y0038072D01*
X0084743Y0038283D01*
X0084579Y0038490D01*
X0084411Y0038693D01*
X0084238Y0038891D01*
X0084059Y0039086D01*
X0083876Y0039276D01*
X0083689Y0039461D01*
X0083497Y0039642D01*
X0083301Y0039818D01*
X0083100Y0039989D01*
X0082895Y0040155D01*
X0082687Y0040316D01*
X0082474Y0040472D01*
X0082258Y0040623D01*
X0082038Y0040769D01*
X0081814Y0040909D01*
X0081587Y0041043D01*
X0081357Y0041172D01*
X0081124Y0041295D01*
X0080888Y0041413D01*
X0080649Y0041524D01*
X0080408Y0041630D01*
X0080164Y0041730D01*
X0079917Y0041824D01*
X0079669Y0041912D01*
X0079418Y0041994D01*
X0079396Y0041922D01*
X0079645Y0041841D01*
X0079892Y0041754D01*
X0080136Y0041660D01*
X0080379Y0041561D01*
X0080619Y0041456D01*
X0080856Y0041345D01*
X0081090Y0041228D01*
X0081322Y0041106D01*
X0081550Y0040978D01*
X0081775Y0040844D01*
X0081997Y0040705D01*
X0082216Y0040561D01*
X0082430Y0040411D01*
X0082642Y0040256D01*
X0082849Y0040096D01*
X0083052Y0039931D01*
X0083251Y0039761D01*
X0083446Y0039586D01*
X0083637Y0039407D01*
X0083823Y0039223D01*
X0084005Y0039034D01*
X0084182Y0038841D01*
X0084354Y0038644D01*
X0084521Y0038442D01*
X0084684Y0038237D01*
X0084841Y0038028D01*
X0084993Y0037815D01*
X0085140Y0037598D01*
X0085281Y0037377D01*
X0085417Y0037154D01*
X0085548Y0036927D01*
X0085673Y0036697D01*
X0085792Y0036464D01*
X0085906Y0036228D01*
X0086014Y0035989D01*
X0086116Y0035748D01*
X0086212Y0035504D01*
X0086302Y0035258D01*
X0086386Y0035010D01*
X0086464Y0034760D01*
X0086535Y0034508D01*
X0086601Y0034255D01*
X0086660Y0034000D01*
X0086713Y0033743D01*
X0086760Y0033486D01*
X0086801Y0033227D01*
X0086835Y0032967D01*
X0086863Y0032707D01*
X0086884Y0032446D01*
X0086899Y0032185D01*
X0086908Y0031923D01*
X0086910Y0031661D01*
X0086906Y0031399D01*
X0086895Y0031138D01*
X0086878Y0030876D01*
X0086855Y0030615D01*
X0086825Y0030355D01*
X0086789Y0030096D01*
X0086747Y0029838D01*
X0086698Y0029580D01*
X0086643Y0029324D01*
X0086582Y0029070D01*
X0086515Y0028817D01*
X0086441Y0028565D01*
X0086361Y0028316D01*
X0086275Y0028068D01*
X0086184Y0027823D01*
X0086086Y0027580D01*
X0085982Y0027340D01*
X0085873Y0027102D01*
X0085757Y0026867D01*
X0085636Y0026635D01*
X0085510Y0026405D01*
X0085378Y0026179D01*
X0085240Y0025957D01*
X0085097Y0025737D01*
X0084948Y0025522D01*
X0084795Y0025310D01*
X0084636Y0025101D01*
X0084577Y0025148D01*
X0084735Y0025355D01*
X0084887Y0025565D01*
X0085035Y0025779D01*
X0085177Y0025997D01*
X0085313Y0026218D01*
X0085445Y0026443D01*
X0085570Y0026670D01*
X0085691Y0026901D01*
X0085805Y0027134D01*
X0085914Y0027371D01*
X0086017Y0027609D01*
X0086114Y0027850D01*
X0086205Y0028094D01*
X0086290Y0028340D01*
X0086369Y0028587D01*
X0086442Y0028837D01*
X0086509Y0029088D01*
X0086570Y0029341D01*
X0086625Y0029595D01*
X0086673Y0029851D01*
X0086715Y0030107D01*
X0086751Y0030365D01*
X0086780Y0030623D01*
X0086804Y0030882D01*
X0086820Y0031142D01*
X0086831Y0031401D01*
X0086835Y0031661D01*
X0086833Y0031921D01*
X0086824Y0032181D01*
X0086809Y0032441D01*
X0086788Y0032700D01*
X0086760Y0032959D01*
X0086726Y0033216D01*
X0086686Y0033473D01*
X0086640Y0033729D01*
X0086587Y0033984D01*
X0086528Y0034237D01*
X0086463Y0034489D01*
X0086392Y0034739D01*
X0086314Y0034987D01*
X0086231Y0035233D01*
X0086142Y0035477D01*
X0086046Y0035719D01*
X0085945Y0035959D01*
X0085838Y0036196D01*
X0085725Y0036430D01*
X0085607Y0036662D01*
X0085483Y0036890D01*
X0085353Y0037115D01*
X0085218Y0037338D01*
X0085077Y0037556D01*
X0084931Y0037772D01*
X0084780Y0037983D01*
X0084624Y0038191D01*
X0084463Y0038395D01*
X0084297Y0038595D01*
X0084126Y0038791D01*
X0083950Y0038983D01*
X0083770Y0039170D01*
X0083585Y0039353D01*
X0083396Y0039531D01*
X0083202Y0039705D01*
X0083004Y0039873D01*
X0082802Y0040037D01*
X0082597Y0040196D01*
X0082387Y0040350D01*
X0082174Y0040499D01*
X0081957Y0040642D01*
X0081736Y0040780D01*
X0081513Y0040913D01*
X0081286Y0041040D01*
X0081056Y0041162D01*
X0080823Y0041277D01*
X0080588Y0041388D01*
X0080350Y0041492D01*
X0080109Y0041591D01*
X0079866Y0041683D01*
X0079621Y0041770D01*
X0079374Y0041850D01*
X0079352Y0041779D01*
X0079597Y0041699D01*
X0079840Y0041613D01*
X0080082Y0041521D01*
X0080321Y0041423D01*
X0080557Y0041319D01*
X0080791Y0041210D01*
X0081022Y0041095D01*
X0081250Y0040974D01*
X0081476Y0040848D01*
X0081698Y0040716D01*
X0081916Y0040579D01*
X0082132Y0040437D01*
X0082343Y0040289D01*
X0082552Y0040136D01*
X0082756Y0039978D01*
X0082956Y0039816D01*
X0083153Y0039648D01*
X0083345Y0039476D01*
X0083533Y0039299D01*
X0083717Y0039117D01*
X0083896Y0038931D01*
X0084070Y0038741D01*
X0084240Y0038546D01*
X0084405Y0038348D01*
X0084565Y0038145D01*
X0084720Y0037939D01*
X0084870Y0037729D01*
X0085015Y0037515D01*
X0085154Y0037298D01*
X0085288Y0037077D01*
X0085417Y0036853D01*
X0085540Y0036627D01*
X0085658Y0036397D01*
X0085770Y0036164D01*
X0085876Y0035929D01*
X0085977Y0035691D01*
X0086071Y0035451D01*
X0086160Y0035208D01*
X0086243Y0034964D01*
X0086320Y0034717D01*
X0086390Y0034469D01*
X0086455Y0034219D01*
X0086514Y0033968D01*
X0086566Y0033715D01*
X0086612Y0033461D01*
X0086652Y0033206D01*
X0086686Y0032950D01*
X0086713Y0032693D01*
X0086734Y0032436D01*
X0086749Y0032178D01*
X0086758Y0031920D01*
X0086760Y0031662D01*
X0086756Y0031404D01*
X0086745Y0031146D01*
X0086729Y0030888D01*
X0086706Y0030631D01*
X0086676Y0030374D01*
X0086641Y0030119D01*
X0086599Y0029864D01*
X0086551Y0029610D01*
X0086497Y0029358D01*
X0086437Y0029107D01*
X0086370Y0028857D01*
X0086298Y0028609D01*
X0086219Y0028364D01*
X0086135Y0028120D01*
X0086044Y0027878D01*
X0085948Y0027638D01*
X0085845Y0027401D01*
X0085737Y0027167D01*
X0085624Y0026935D01*
X0085504Y0026706D01*
X0085380Y0026480D01*
X0085249Y0026257D01*
X0085113Y0026038D01*
X0084972Y0025821D01*
X0084826Y0025609D01*
X0084675Y0025400D01*
X0084518Y0025194D01*
X0084459Y0025241D01*
X0084615Y0025445D01*
X0084765Y0025652D01*
X0084910Y0025863D01*
X0085050Y0026078D01*
X0085185Y0026296D01*
X0085315Y0026517D01*
X0085438Y0026742D01*
X0085557Y0026969D01*
X0085670Y0027199D01*
X0085777Y0027432D01*
X0085878Y0027667D01*
X0085974Y0027905D01*
X0086064Y0028145D01*
X0086148Y0028387D01*
X0086226Y0028632D01*
X0086298Y0028878D01*
X0086364Y0029125D01*
X0086424Y0029375D01*
X0086478Y0029625D01*
X0086525Y0029877D01*
X0086567Y0030130D01*
X0086602Y0030384D01*
X0086631Y0030639D01*
X0086654Y0030894D01*
X0086671Y0031150D01*
X0086681Y0031406D01*
X0086685Y0031662D01*
X0086683Y0031918D01*
X0086674Y0032175D01*
X0086660Y0032431D01*
X0086639Y0032686D01*
X0086611Y0032941D01*
X0086578Y0033195D01*
X0086538Y0033448D01*
X0086492Y0033701D01*
X0086440Y0033952D01*
X0086382Y0034201D01*
X0086318Y0034449D01*
X0086248Y0034696D01*
X0086172Y0034941D01*
X0086089Y0035183D01*
X0086001Y0035424D01*
X0085907Y0035663D01*
X0085808Y0035899D01*
X0085702Y0036132D01*
X0085591Y0036363D01*
X0085474Y0036591D01*
X0085352Y0036817D01*
X0085224Y0037039D01*
X0085091Y0037258D01*
X0084952Y0037474D01*
X0084808Y0037686D01*
X0084660Y0037895D01*
X0084506Y0038099D01*
X0084347Y0038301D01*
X0084183Y0038498D01*
X0084014Y0038691D01*
X0083841Y0038880D01*
X0083663Y0039064D01*
X0083481Y0039245D01*
X0083294Y0039420D01*
X0083104Y0039592D01*
X0082909Y0039758D01*
X0082710Y0039920D01*
X0082507Y0040076D01*
X0082300Y0040228D01*
X0082090Y0040374D01*
X0081876Y0040516D01*
X0081659Y0040652D01*
X0081438Y0040783D01*
X0081215Y0040908D01*
X0080988Y0041028D01*
X0080759Y0041142D01*
X0080526Y0041251D01*
X0080292Y0041354D01*
X0080054Y0041451D01*
X0079815Y0041542D01*
X0079573Y0041628D01*
X0079329Y0041707D01*
X0079307Y0041635D01*
X0079549Y0041556D01*
X0079789Y0041472D01*
X0080027Y0041381D01*
X0080263Y0041285D01*
X0080496Y0041182D01*
X0080726Y0041075D01*
X0080954Y0040961D01*
X0081179Y0040842D01*
X0081401Y0040718D01*
X0081620Y0040588D01*
X0081835Y0040453D01*
X0082048Y0040312D01*
X0082257Y0040167D01*
X0082462Y0040016D01*
X0082663Y0039861D01*
X0082861Y0039700D01*
X0083054Y0039535D01*
X0083244Y0039365D01*
X0083429Y0039191D01*
X0083610Y0039012D01*
X0083786Y0038828D01*
X0083958Y0038641D01*
X0084126Y0038449D01*
X0084288Y0038253D01*
X0084446Y0038054D01*
X0084599Y0037850D01*
X0084747Y0037643D01*
X0084890Y0037432D01*
X0085027Y0037218D01*
X0085159Y0037001D01*
X0085286Y0036780D01*
X0085408Y0036556D01*
X0085524Y0036330D01*
X0085634Y0036101D01*
X0085739Y0035869D01*
X0085838Y0035634D01*
X0085931Y0035397D01*
X0086019Y0035158D01*
X0086100Y0034917D01*
X0086176Y0034674D01*
X0086246Y0034430D01*
X0086309Y0034183D01*
X0086367Y0033935D01*
X0086419Y0033686D01*
X0086464Y0033436D01*
X0086504Y0033184D01*
X0086537Y0032932D01*
X0086564Y0032679D01*
X0086585Y0032425D01*
X0086599Y0032171D01*
X0086608Y0031917D01*
X0086610Y0031662D01*
X0086606Y0031408D01*
X0086596Y0031154D01*
X0086579Y0030900D01*
X0086557Y0030646D01*
X0086528Y0030393D01*
X0086493Y0030141D01*
X0086451Y0029890D01*
X0086404Y0029640D01*
X0086351Y0029391D01*
X0086291Y0029144D01*
X0086226Y0028898D01*
X0086154Y0028654D01*
X0086077Y0028411D01*
X0085994Y0028171D01*
X0085904Y0027932D01*
X0085809Y0027696D01*
X0085709Y0027463D01*
X0085602Y0027232D01*
X0085490Y0027003D01*
X0085373Y0026777D01*
X0085249Y0026555D01*
X0085121Y0026335D01*
X0084987Y0026118D01*
X0084848Y0025905D01*
X0084704Y0025696D01*
X0084555Y0025490D01*
X0084400Y0025287D01*
X0084341Y0025334D01*
X0084494Y0025534D01*
X0084643Y0025739D01*
X0084786Y0025947D01*
X0084924Y0026159D01*
X0085057Y0026374D01*
X0085184Y0026592D01*
X0085307Y0026813D01*
X0085423Y0027037D01*
X0085535Y0027264D01*
X0085640Y0027493D01*
X0085740Y0027725D01*
X0085834Y0027960D01*
X0085923Y0028196D01*
X0086006Y0028435D01*
X0086083Y0028676D01*
X0086154Y0028918D01*
X0086219Y0029162D01*
X0086278Y0029408D01*
X0086331Y0029655D01*
X0086378Y0029903D01*
X0086419Y0030153D01*
X0086453Y0030403D01*
X0086482Y0030654D01*
X0086504Y0030906D01*
X0086521Y0031158D01*
X0086531Y0031410D01*
X0086535Y0031663D01*
X0086533Y0031915D01*
X0086524Y0032168D01*
X0086510Y0032420D01*
X0086489Y0032672D01*
X0086462Y0032923D01*
X0086429Y0033174D01*
X0086390Y0033423D01*
X0086345Y0033672D01*
X0086294Y0033919D01*
X0086237Y0034165D01*
X0086173Y0034410D01*
X0086104Y0034653D01*
X0086029Y0034894D01*
X0085948Y0035134D01*
X0085861Y0035371D01*
X0085769Y0035606D01*
X0085670Y0035839D01*
X0085566Y0036069D01*
X0085457Y0036297D01*
X0085341Y0036521D01*
X0085221Y0036743D01*
X0085095Y0036962D01*
X0084964Y0037178D01*
X0084827Y0037391D01*
X0084685Y0037600D01*
X0084539Y0037806D01*
X0084387Y0038008D01*
X0084230Y0038206D01*
X0084069Y0038400D01*
X0083903Y0038591D01*
X0083732Y0038777D01*
X0083557Y0038959D01*
X0083377Y0039137D01*
X0083193Y0039310D01*
X0083005Y0039478D01*
X0082813Y0039642D01*
X0082617Y0039802D01*
X0082417Y0039956D01*
X0082213Y0040106D01*
X0082006Y0040250D01*
X0081795Y0040390D01*
X0081581Y0040524D01*
X0081364Y0040653D01*
X0081143Y0040776D01*
X0080920Y0040894D01*
X0080694Y0041007D01*
X0080465Y0041114D01*
X0080234Y0041215D01*
X0080000Y0041311D01*
X0079764Y0041401D01*
X0079525Y0041485D01*
X0079285Y0041564D01*
X0079263Y0041492D01*
X0079502Y0041414D01*
X0079738Y0041331D01*
X0079972Y0041241D01*
X0080205Y0041146D01*
X0080434Y0041046D01*
X0080661Y0040939D01*
X0080886Y0040827D01*
X0081108Y0040710D01*
X0081326Y0040588D01*
X0081542Y0040460D01*
X0081755Y0040326D01*
X0081964Y0040188D01*
X0082170Y0040045D01*
X0082372Y0039896D01*
X0082570Y0039743D01*
X0082765Y0039585D01*
X0082956Y0039422D01*
X0083142Y0039254D01*
X0083325Y0039082D01*
X0083503Y0038906D01*
X0083677Y0038725D01*
X0083847Y0038541D01*
X0084012Y0038352D01*
X0084172Y0038159D01*
X0084328Y0037962D01*
X0084478Y0037761D01*
X0084624Y0037557D01*
X0084764Y0037350D01*
X0084900Y0037138D01*
X0085030Y0036924D01*
X0085155Y0036707D01*
X0085275Y0036486D01*
X0085389Y0036263D01*
X0085498Y0036037D01*
X0085601Y0035809D01*
X0085699Y0035578D01*
X0085791Y0035344D01*
X0085877Y0035109D01*
X0085958Y0034871D01*
X0086032Y0034632D01*
X0086101Y0034390D01*
X0086164Y0034148D01*
X0086221Y0033903D01*
X0086271Y0033658D01*
X0086316Y0033411D01*
X0086355Y0033163D01*
X0086388Y0032914D01*
X0086415Y0032665D01*
X0086435Y0032415D01*
X0086449Y0032165D01*
X0086458Y0031914D01*
X0086460Y0031663D01*
X0086456Y0031412D01*
X0086446Y0031162D01*
X0086430Y0030912D01*
X0086407Y0030662D01*
X0086379Y0030413D01*
X0086344Y0030164D01*
X0086304Y0029917D01*
X0086257Y0029670D01*
X0086205Y0029425D01*
X0086146Y0029181D01*
X0086081Y0028939D01*
X0086011Y0028698D01*
X0085935Y0028459D01*
X0085853Y0028222D01*
X0085765Y0027987D01*
X0085671Y0027754D01*
X0085572Y0027524D01*
X0085467Y0027296D01*
X0085356Y0027071D01*
X0085241Y0026849D01*
X0085119Y0026629D01*
X0084993Y0026413D01*
X0084861Y0026199D01*
X0084724Y0025989D01*
X0084582Y0025783D01*
X0084434Y0025579D01*
X0084282Y0025380D01*
X0084223Y0025426D01*
X0084374Y0025624D01*
X0084521Y0025826D01*
X0084662Y0026031D01*
X0084798Y0026240D01*
X0084929Y0026451D01*
X0085054Y0026666D01*
X0085175Y0026884D01*
X0085290Y0027105D01*
X0085399Y0027329D01*
X0085503Y0027555D01*
X0085602Y0027783D01*
X0085695Y0028014D01*
X0085782Y0028248D01*
X0085864Y0028483D01*
X0085939Y0028720D01*
X0086009Y0028959D01*
X0086073Y0029200D01*
X0086131Y0029442D01*
X0086184Y0029685D01*
X0086230Y0029930D01*
X0086270Y0030175D01*
X0086305Y0030422D01*
X0086333Y0030669D01*
X0086355Y0030917D01*
X0086371Y0031166D01*
X0086381Y0031415D01*
X0086385Y0031664D01*
X0086383Y0031913D01*
X0086375Y0032161D01*
X0086360Y0032410D01*
X0086340Y0032658D01*
X0086313Y0032906D01*
X0086281Y0033152D01*
X0086242Y0033398D01*
X0086198Y0033643D01*
X0086147Y0033887D01*
X0086091Y0034130D01*
X0086029Y0034371D01*
X0085960Y0034610D01*
X0085886Y0034848D01*
X0085806Y0035084D01*
X0085721Y0035318D01*
X0085630Y0035549D01*
X0085533Y0035778D01*
X0085430Y0036005D01*
X0085322Y0036230D01*
X0085209Y0036451D01*
X0085090Y0036670D01*
X0084966Y0036886D01*
X0084836Y0037099D01*
X0084702Y0037308D01*
X0084562Y0037514D01*
X0084418Y0037717D01*
X0084268Y0037916D01*
X0084114Y0038111D01*
X0083955Y0038303D01*
X0083791Y0038490D01*
X0083623Y0038674D01*
X0083450Y0038853D01*
X0083273Y0039028D01*
X0083092Y0039199D01*
X0082906Y0039365D01*
X0082717Y0039527D01*
X0082524Y0039684D01*
X0082327Y0039836D01*
X0082126Y0039983D01*
X0081922Y0040126D01*
X0081714Y0040263D01*
X0081503Y0040395D01*
X0081289Y0040522D01*
X0081072Y0040644D01*
X0080852Y0040761D01*
X0080629Y0040872D01*
X0080404Y0040977D01*
X0080175Y0041077D01*
X0079945Y0041171D01*
X0079712Y0041260D01*
X0079478Y0041343D01*
X0079241Y0041420D01*
D16*
X0079867Y0040701D02*
X0079166Y0040001D01*
X0080100Y0040001D01*
X0079867Y0040701D02*
X0079867Y0039300D01*
X0078627Y0039534D02*
X0078394Y0039300D01*
X0077927Y0039300D01*
X0077693Y0039534D01*
X0078627Y0040468D01*
X0078627Y0039534D01*
X0078627Y0040468D02*
X0078394Y0040701D01*
X0077927Y0040701D01*
X0077693Y0040468D01*
X0077693Y0039534D01*
X0077154Y0039534D02*
X0077154Y0040468D01*
X0076920Y0040701D01*
X0076453Y0040701D01*
X0076220Y0040468D01*
X0076220Y0040234D01*
X0076453Y0040001D01*
X0077154Y0040001D01*
X0077154Y0039534D02*
X0076920Y0039300D01*
X0076453Y0039300D01*
X0076220Y0039534D01*
X0075681Y0039534D02*
X0075447Y0039300D01*
X0074980Y0039300D01*
X0074747Y0039534D01*
X0074207Y0039300D02*
X0074207Y0040001D01*
X0073974Y0040234D01*
X0073273Y0040234D01*
X0073273Y0039300D01*
X0072734Y0039300D02*
X0071800Y0039300D01*
X0072734Y0040234D01*
X0072734Y0040468D01*
X0072501Y0040701D01*
X0072034Y0040701D01*
X0071800Y0040468D01*
X0074747Y0040468D02*
X0074980Y0040701D01*
X0075447Y0040701D01*
X0075681Y0040468D01*
X0075681Y0040234D01*
X0075447Y0040001D01*
X0075681Y0039767D01*
X0075681Y0039534D01*
X0075447Y0040001D02*
X0075214Y0040001D01*
X0075087Y0038101D02*
X0075554Y0038101D01*
X0075788Y0037868D01*
X0075788Y0036934D01*
X0075554Y0036700D01*
X0075087Y0036700D01*
X0074853Y0036934D01*
X0074853Y0037868D01*
X0075087Y0038101D01*
X0076327Y0037634D02*
X0076794Y0038101D01*
X0076794Y0036700D01*
X0076327Y0036700D02*
X0077261Y0036700D01*
X0075788Y0036700D02*
X0075321Y0037167D01*
X0055181Y0034468D02*
X0054247Y0033534D01*
X0054480Y0033300D01*
X0054947Y0033300D01*
X0055181Y0033534D01*
X0055181Y0034468D01*
X0054947Y0034701D01*
X0054480Y0034701D01*
X0054247Y0034468D01*
X0054247Y0033534D01*
X0053707Y0033534D02*
X0053474Y0033300D01*
X0053007Y0033300D01*
X0052773Y0033534D01*
X0053707Y0034468D01*
X0053707Y0033534D01*
X0052773Y0033534D02*
X0052773Y0034468D01*
X0053007Y0034701D01*
X0053474Y0034701D01*
X0053707Y0034468D01*
X0052234Y0033300D02*
X0051300Y0033300D01*
X0051767Y0033300D02*
X0051767Y0034701D01*
X0051300Y0034234D01*
X0049240Y0034201D02*
X0049240Y0032800D01*
X0048773Y0032800D02*
X0049707Y0032800D01*
X0048234Y0032800D02*
X0047767Y0033267D01*
X0048001Y0033267D02*
X0047300Y0033267D01*
X0047300Y0032800D02*
X0047300Y0034201D01*
X0048001Y0034201D01*
X0048234Y0033968D01*
X0048234Y0033501D01*
X0048001Y0033267D01*
X0048773Y0033734D02*
X0049240Y0034201D01*
X0051767Y0023701D02*
X0051767Y0022300D01*
X0051300Y0022300D02*
X0052234Y0022300D01*
X0052773Y0022534D02*
X0053007Y0022300D01*
X0053474Y0022300D01*
X0053707Y0022534D01*
X0053707Y0023468D01*
X0052773Y0022534D01*
X0052773Y0023468D01*
X0053007Y0023701D01*
X0053474Y0023701D01*
X0053707Y0023468D01*
X0054247Y0023701D02*
X0054247Y0022300D01*
X0054247Y0022767D02*
X0054947Y0022300D01*
X0054247Y0022767D02*
X0054947Y0023234D01*
X0051767Y0023701D02*
X0051300Y0023234D01*
X0049707Y0022968D02*
X0049474Y0023201D01*
X0049007Y0023201D01*
X0048773Y0022968D01*
X0048234Y0022968D02*
X0048234Y0022501D01*
X0048001Y0022267D01*
X0047300Y0022267D01*
X0047300Y0021800D02*
X0047300Y0023201D01*
X0048001Y0023201D01*
X0048234Y0022968D01*
X0047767Y0022267D02*
X0048234Y0021800D01*
X0048773Y0021800D02*
X0049707Y0022734D01*
X0049707Y0022968D01*
X0049707Y0021800D02*
X0048773Y0021800D01*
X0052767Y0012701D02*
X0052767Y0011300D01*
X0052300Y0011300D02*
X0053234Y0011300D01*
X0053773Y0011300D02*
X0053773Y0012701D01*
X0054474Y0012234D02*
X0053773Y0011767D01*
X0054474Y0011300D01*
X0052767Y0012701D02*
X0052300Y0012234D01*
X0049707Y0011968D02*
X0049707Y0011734D01*
X0049474Y0011501D01*
X0049707Y0011267D01*
X0049707Y0011034D01*
X0049474Y0010800D01*
X0049007Y0010800D01*
X0048773Y0011034D01*
X0048234Y0010800D02*
X0047767Y0011267D01*
X0048001Y0011267D02*
X0047300Y0011267D01*
X0047300Y0010800D02*
X0047300Y0012201D01*
X0048001Y0012201D01*
X0048234Y0011968D01*
X0048234Y0011501D01*
X0048001Y0011267D01*
X0048773Y0011968D02*
X0049007Y0012201D01*
X0049474Y0012201D01*
X0049707Y0011968D01*
X0049474Y0011501D02*
X0049240Y0011501D01*
M02*
