%
M48
M72
T01C0.02756
T02C0.03200
T03C0.03543
T04C0.03937
T05C0.04000
%
T01
X97200Y27700
X97200Y37700
T02
X6200Y8700
X6200Y18700
X6200Y28700
X6200Y38700
X36200Y38700
X36200Y28700
X36200Y18700
X36200Y8700
X66200Y31700
X76200Y31700
X86200Y31700
T03
X57200Y27700
X47200Y27700
X47200Y16700
X57200Y16700
X57200Y38700
X47200Y38700
T04
X72200Y13700
X82200Y13700
X92200Y13700
T05
X87200Y55700
X77200Y55700
X67200Y55700
X57200Y55700
X47200Y55700
X37200Y55700
X27200Y55700
X17200Y55700
X7200Y55700
X97200Y55700
M30
